<svg xmlns="http://www.w3.org/2000/svg" width="170" height="35" fill="none"><g clip-path="url(#clip0)" clip-rule="evenodd" fill-rule="evenodd"><path d="M58.453 11.035c.142-3.716 2.914-5.845 5.464-5.833 2.95-.086 5.571 2.548 5.531 5.838l.052 13.105-2.81-.623-.003-12.484c-.031-1.795-1.31-2.84-2.774-2.89-1.34.045-2.596 1.11-2.652 2.887l-.019 13.038-2.758.024-.03-13.062z" fill="#272727"/><path d="M58.473 24.097c.064 3.716 2.913 5.845 5.464 5.833 2.948.086 5.594-2.548 5.553-5.837l-.033-4.263-2.77 1.43.003 2.834c-.03 1.796-1.294 2.84-2.758 2.89-1.34-.045-2.596-1.11-2.652-2.887l-.065-13.045-2.711-.017-.031 13.062zm14.395.068c.141 3.717 2.913 5.845 5.463 5.833 2.95.086 5.572-2.548 5.532-5.837l.02-5.336.01-3.036-6.465-.802.288 2.5 3.383 1.244.004.926-.002 4.505c-.031 1.796-1.31 2.84-2.774 2.89-1.34-.045-2.596-1.11-2.651-2.887l-.02-13.037-2.757-.025-.031 13.062z" fill="#272727"/><path d="M72.879 10.578c.088-1.182.776-4.279 4.285-5.232.36-.085.853-.155 1.225-.146l5.418.353-.61 2.605c-.895-.03-3.465.004-4.953-.002-1.036.068-2.529.847-2.594 2.878l-.014 11.868-2.757-.392V10.578zm-27.879 0c.088-1.182.776-4.279 4.285-5.232A5.31 5.31 0 0150.51 5.2l5.418.353-.61 2.605c-.895-.03-3.465.004-4.954-.002-1.035.068-2.528.847-2.593 2.876l-.014 18.846H45v-19.3z" fill="#272727"/><path d="M45.466 15.642l9.838.26-.066 2.544-9.772.26v-3.064zm57.182 14.305h2.773V7.713h-2.773v22.234z" fill="#272727"/><path d="M109.527 8.066V5.13h-11.03v2.935h11.03zm16.178 2.439c.088-1.18.776-4.278 4.285-5.23a5.386 5.386 0 011.225-.147l5.417.353-.609 2.606c-.895-.032-3.465.004-4.953-.003-1.037.069-2.529.848-2.594 2.877l-.008 10.837-.744.553-.836-.052-1.183-.084v-11.71z" fill="#272727"/><path d="M126.236 15.579l9.839.26-.066 2.544-9.773.26V15.58z" fill="#272727"/><path d="M125.698 24.522c.087 1.182.776 4.279 4.284 5.232.361.085.853.155 1.225.147l5.419-.354-.61-2.605c-.895.03-3.465-.004-4.954.002-1.037-.068-2.528-.847-2.594-2.877l-.008-10.837-.744-.553-.836.052-1.182.085v11.708zm28.507-14.074c.086-1.182.105-4.303 3.891-5.313 2.002-.453 5.013 1.326 5.264 4.368l-1.557 4.424c-.125-.193-.206-5.985-2.781-5.967a1.99 1.99 0 00-1.913 1.332c-.156.426-.135.963-.134 1.611l-.029 18.797-2.734-.025-.007-19.227z" fill="#272727"/><path d="M170 10.415c-.088-1.181-.107-4.302-3.891-5.313-2.119-.574-5.015 1.326-5.264 4.368l1.557 4.425c.124-.194.206-5.985 2.78-5.967.84-.009 1.607.49 1.914 1.332.154.425.134.963.132 1.61l.015 18.846H170V10.415z" fill="#272727"/><path d="M160.662 8.024l.339 10.476 2.372-.013.339-10.398-3.05-.065zM86.225 10.57c.053-1.191.636-4.263 4.114-5.339.36-.097.867-.193 1.24-.197 3.376-.072 5.667 2.748 5.647 5.823l-.012 1.797-2.684.002-.1-2.034c-.09-1.82-1.688-2.701-2.897-2.602-1.034.103-2.489.87-2.494 2.915-.007 1.18.128 1.71 1.884 3.604l4.84 5.092c3.95 4.395.764 10.268-3.4 10.341-4.108.073-5.627-3.27-5.748-5.091l-.049-.733 1.228-.337c.082-.022-.599.036.535-.15-.065 2.093.582-.4.968.985.361 1.301 1.14 2.162 2.745 2.342 1.279-.048 2.479-.953 2.691-2.662.212-1.561-1.38-2.87-2.982-4.554-1.565-1.645-3.117-3.55-3.968-4.526-.918-1.15-1.686-2.406-1.558-4.676z" fill="#272727"/><path d="M97.566 24.441c-.052 1.192-.635 4.263-4.114 5.338-.358.098-.867.195-1.239.198-3.377.071-5.899-2.756-5.678-5.822l.05-2.87 2.774.002.026 3.093c.014 1.824 1.666 2.71 2.874 2.61 1.034-.102 2.488-.87 2.494-2.913.007-1.181-.129-1.71-1.885-3.605-1.373-1.446-6.259-10.451-1.707-5.694 1.044 1.09 2.705 2.53 4.847 4.987.919 1.15 1.687 2.406 1.558 4.676zm41.956-13.537c.143-3.716 2.957-5.846 5.546-5.834 2.993-.085 5.655 2.548 5.615 5.838l-.136 18.866-2.706.004.037-18.871c-.031-1.796-1.329-2.84-2.815-2.89-1.36.044-2.635 1.11-2.691 2.887l.122 18.86-2.828.003-.144-18.863z" fill="#272727"/><path d="M149.961 18.576V15.64h-9.503v2.935h9.503zm-38.81 11.296h2.773v-16.22h-2.773v16.22z" fill="#272727"/><path d="M111.144 10.977c.141-3.74 2.913-5.88 5.463-5.87 2.949-.085 5.571 2.565 5.531 5.873l-.064 1.296-2.57 3.849-.128-5.146c-.031-1.806-1.309-2.857-2.773-2.907-1.34.045-2.596 1.116-2.652 2.905l-.019 13.114-2.757.025-.031-13.14z" fill="#272727"/><path d="M114.053 16.399a5.066 5.066 0 012.593-.729c2.949-.086 5.571 2.564 5.531 5.872l-.01 8.33-2.687-.003-.065-8.328c-.031-1.806-1.309-2.857-2.773-2.907l-2.837.019-1.668.085c-1.241-3.945-1.096-.553 1.916-2.34z" fill="#272727"/><path d="M111.297 12.777c.142 3.74 2.698 5.88 5.249 5.87 2.949.085 5.571-2.564 5.531-5.873l.028-1.59-2.663-3.555-.128 5.146c-.031 1.806-1.309 2.857-2.772 2.907l-2.653.024c-.636.007.026-2.09 0-2.929l-.005-3.82-.045-.66-1.895 2.833-.647 1.647z" fill="#272727"/><path d="M120.592 10.273l1.548.693-.068 2.036-1.48.29v-3.02zm-62.139.762c.142-3.716 2.914-5.845 5.464-5.833 2.95-.086 5.571 2.548 5.531 5.838l.052 13.105-2.81-.623-.003-12.484c-.031-1.795-1.31-2.84-2.774-2.89-1.34.045-2.596 1.11-2.652 2.887l-.019 13.038-2.758.024-.03-13.062z" fill="#272727"/><path d="M58.473 24.097c.064 3.716 2.913 5.845 5.464 5.833 2.948.086 5.594-2.548 5.553-5.837l-.033-4.263-2.77 1.43.003 2.834c-.03 1.796-1.294 2.84-2.758 2.89-1.34-.045-2.596-1.11-2.652-2.887l-.065-13.045-2.711-.017-.031 13.062zm14.395.068c.141 3.717 2.913 5.845 5.463 5.833 2.95.086 5.572-2.548 5.532-5.837l.02-5.336.01-3.036-6.465-.802.288 2.5 3.383 1.244.004.926-.002 4.505c-.031 1.796-1.31 2.84-2.774 2.89-1.34-.045-2.596-1.11-2.651-2.887l-.02-13.037-2.757-.025-.031 13.062z" fill="#272727"/><path d="M72.879 10.578c.088-1.182.776-4.279 4.285-5.232.36-.085.853-.155 1.225-.146l5.418.353-.61 2.605c-.895-.03-3.465.004-4.953-.002-1.036.068-2.529.847-2.594 2.878l-.014 11.868-2.757-.392V10.578zm29.769 19.369h2.773V7.713h-2.773v22.234z" fill="#272727"/><path d="M109.527 8.066V5.13h-11.03v2.935h11.03zm16.178 2.439c.088-1.18.776-4.278 4.285-5.23a5.386 5.386 0 011.225-.147l5.417.353-.609 2.606c-.895-.032-3.465.004-4.953-.003-1.037.069-2.529.848-2.594 2.877l-.008 10.837-.744.553-.836-.052-1.183-.084v-11.71z" fill="#272727"/><path d="M126.236 15.579l9.839.26-.066 2.544-9.773.26V15.58z" fill="#272727"/><path d="M125.698 24.522c.087 1.182.776 4.279 4.284 5.232.361.085.853.155 1.225.147l5.419-.354-.61-2.605c-.895.03-3.465-.004-4.954.002-1.037-.068-2.528-.847-2.594-2.877l-.008-10.837-.744-.553-.836.052-1.182.085v11.708zm28.507-14.074c.086-1.182.105-4.303 3.891-5.313 2.002-.453 5.013 1.326 5.264 4.368l-1.557 4.424c-.125-.193-.206-5.985-2.781-5.967a1.99 1.99 0 00-1.913 1.332c-.156.426-.135.963-.134 1.611l-.029 18.797-2.734-.025-.007-19.227z" fill="#272727"/><path d="M170 10.415c-.088-1.181-.107-4.302-3.891-5.313-2.119-.574-5.015 1.326-5.264 4.368l1.557 4.425c.124-.194.206-5.985 2.78-5.967.84-.009 1.607.49 1.914 1.332.154.425.134.963.132 1.61l.015 18.846H170V10.415z" fill="#272727"/><path d="M160.662 8.024l.339 10.476 2.372-.013.339-10.398-3.05-.065zM86.225 10.57c.053-1.191.636-4.263 4.114-5.339.36-.097.867-.193 1.24-.197 3.376-.072 5.667 2.748 5.647 5.823l-.012 1.797-2.684.002-.1-2.034c-.09-1.82-1.688-2.701-2.897-2.602-1.034.103-2.489.87-2.494 2.915-.007 1.18.128 1.71 1.884 3.604l4.84 5.092c3.95 4.395.764 10.268-3.4 10.341-4.108.073-5.627-3.27-5.748-5.091l-.049-.733 1.228-.337c.082-.022-.599.036.535-.15-.065 2.093.582-.4.968.985.361 1.301 1.14 2.162 2.745 2.342 1.279-.048 2.479-.953 2.691-2.662.212-1.561-1.38-2.87-2.982-4.554-1.565-1.645-3.117-3.55-3.968-4.526-.918-1.15-1.686-2.406-1.558-4.676z" fill="#272727"/><path d="M97.566 24.441c-.052 1.192-.635 4.263-4.114 5.338-.358.098-.867.195-1.239.198-3.377.071-5.899-2.756-5.678-5.822l.05-2.87 2.774.002.026 3.093c.014 1.824 1.666 2.71 2.874 2.61 1.034-.102 2.488-.87 2.494-2.913.007-1.181-.129-1.71-1.885-3.605-1.373-1.446-6.259-10.451-1.707-5.694 1.044 1.09 2.705 2.53 4.847 4.987.919 1.15 1.687 2.406 1.558 4.676zm41.956-13.537c.143-3.716 2.957-5.846 5.546-5.834 2.993-.085 5.655 2.548 5.615 5.838l-.136 18.866-2.706.004.037-18.871c-.031-1.796-1.329-2.84-2.815-2.89-1.36.044-2.635 1.11-2.691 2.887l.122 18.86-2.828.003-.144-18.863z" fill="#272727"/><path d="M149.961 18.576V15.64h-9.503v2.935h9.503z" fill="#272727"/><path d="M12.762 8.42h3.11v3.143h-3.11V8.421zm3.185.005h3.11v3.142h-3.11V8.425zm3.188-.005h3.11v3.143h-3.11V8.421z" fill="#1883FC"/><path d="M12.76 5.213h9.49v9.536h-9.49V5.213z" fill="#1883FC"/><path d="M15.946 2h3.109v3.592h-3.11V2zM3.191 11.63H7.34v3.142H3.191V11.63zM.005 14.846h7.492v3.142H.005v-3.142zm34.993.009h-7.166v3.141h7.166v-3.14z" fill="#1883FC"/><path d="M3.19 11.571h3.379v9.636h-3.38v-9.636zm23.957 5.559h4.663v4.079h-4.663V17.13zm-1.632-5.49h3.11v3.142h-3.11V11.64zM9.566 5.21h3.994v6.34H9.566V5.21zm4.83.003h11.04v3.142h-11.04V5.213z" fill="#1883FC"/><path d="M6.302 8.237h22.32v3.33H6.302v-3.33z" fill="#1883FC"/><path d="M6.38 8.429h3.11v3.142H6.38V8.429zM9.564 2h3.11v4.081h-3.11V2zm12.759 0h3.11v4.923h-3.11V2zm3.192 12.856h3.109v3.142h-3.11v-3.142z" fill="#1883FC"/><path d="M6.305 8.398h3.143v12.813H6.305V8.398zm19.208-.131h3.11V21.21h-3.11V8.267zM3.222 24.497H9.49v3.142H3.22v-3.142z" fill="#1883FC"/><path d="M3.191 11.524H6.36v16.115H3.19V11.523zm22.324 12.971h6.268v3.142h-6.268v-3.142z" fill="#1883FC"/><path d="M28.602 11.536h3.21v16.101h-3.21v-16.1zM6.381 27.364h3.11v3.491H6.38v-3.49zm3.101 3.492h3.202v3.142H9.482v-3.142z" fill="#1883FC"/><path d="M25.516 24.526h3.11v6.341h-3.11v-6.34z" fill="#1883FC"/><path d="M22.367 30.858h3.165V34h-3.165v-3.142zm-9.687-3.144h9.69v3.141h-9.69v-3.141zM0 21.28h6.266v3.143H0V21.28zm29.834.005H35v3.141h-5.166v-3.14zm-13.89 0h3.11v3.141h-3.11v-3.141z" fill="#1883FC"/><path d="M16.11 5.293V2.158l2.777.006.003 3.19 3.566-.008.005-3.188 2.79.008-.014 6.238 3.187.022-.005 3.267 3.211.01.007 3.33 3.165-.015-.009 2.78-3.175-.002-.008 3.615 3.254-.001-.003 2.884-3.147.02-2.96-.017-.002-3.224-3.064-.02-.022-9.642-6.738.005.01-2.939-2.835.005.007-3.189z" fill="#1883FC"/></g><defs id="defs151"><clipPath id="clip0"><path d="M0 0h170v35H0V0z" id="path148" fill="#fff"/></clipPath></defs></svg>