<?xml version="1.0" encoding="utf-8"?>
<!-- Generator: Adobe Illustrator 18.1.1, SVG Export Plug-In . SVG Version: 6.00 Build 0)  -->
<svg version="1.1" id="Слой_1" xmlns="http://www.w3.org/2000/svg" xmlns:xlink="http://www.w3.org/1999/xlink" x="0px" y="0px"
	 viewBox="0 0 1005 268" enable-background="new 0 0 1005 268" xml:space="preserve">
<path fill="#12110B" d="M10.5,10H84c23.8,0,40.2,6.2,50.6,16.7c9.1,9.1,13.8,21.2,13.8,37c0,23.8-12.7,39.7-32,47.9l37.1,54.4h-49.7
	l-31.3-47.3H53.6V166H10.5V10z M82,84.9c14.6,0,23.1-7.1,23.1-18.9c0-12.2-8.9-18.5-23.3-18.5H53.6v37.4H82z"/>
<path fill="#009EE2" d="M341.2,9.5h41.5l66.3,157h-46.2l-11.3-27.9h-60l-11.2,27.9H275L341.2,9.5z M379,105l-17.3-44.3L344.1,105
	H379z"/>
<path fill="#12110B" d="M567.5,141.4l23.9-28c15.3,11.9,32.3,18.2,50.2,18.2c11.5,0,17.7-3.9,17.7-10.8c0-6.3-5.1-9.7-26.1-14.5
	c-33-7.3-58.5-16.5-58.5-48.1c0-28.2,22.8-48.6,59.9-48.6c26.3,0,46.9,6.9,63.7,20.2l-21.5,29.7c-14.1-9.8-29.6-15-43.3-15
	c-10.3,0-15.5,4.3-15.5,10.2c0,6.9,5.4,10,26.7,14.7c35.6,7.6,57.8,18.9,57.8,47.7c0,31-25.1,49.4-62.6,49.4
	C612.6,166.6,586.5,158.1,567.5,141.4z"/>
<path fill="#12110B" d="M887.2,9.5h41.6l66.2,157h-46.2l-11.3-27.9h-60l-11.2,27.9H821L887.2,9.5z M925,105l-17.3-44.3L890.2,105
	H925z"/>
<rect x="10.5" y="214.5" fill="#009EE2" width="985" height="43"/>
</svg>
